<svg width="40" height="40" viewBox="0 0 40 40" fill="none" xmlns="http://www.w3.org/2000/svg">
<g id="Group 335">
<g id="Group 1646">
<rect id="Rectangle 28" width="40" height="40" rx="6.66667" fill="black"/>
<g id="Group 31">
<path id="Vector" d="M18.0652 11.5042V12.621C18.0652 13.5821 17.8998 13.7379 17.3296 14.0757L12.0169 17.0108V17.1407L17.3055 20.024C17.8998 20.3615 18.0652 20.4916 18.0652 21.4787V22.7253C18.0652 23.5044 17.8275 23.7643 17.2107 23.4008L9.2175 18.6211C8.74376 18.3355 8.57666 18.1276 8.57666 17.5305V16.6992C8.57666 16.1017 8.74376 15.8679 9.2175 15.5823L17.2107 10.8287C17.8275 10.4652 18.0652 10.7248 18.0652 11.5042Z" fill="white"/>
<path id="Vector_2" d="M18.9093 15.6117L26.8784 20.3651C27.3763 20.6508 27.5434 20.8586 27.5434 21.4559V22.2872C27.5434 22.9106 27.3763 23.1183 26.8784 23.404L18.9093 28.1575C18.2685 28.5212 18.0549 28.2615 18.0549 27.4822V26.3653C18.0549 25.4043 18.2203 25.2483 18.7905 24.9367L24.1032 22.0015V21.8457L18.8146 18.9624C18.2203 18.6508 18.0549 18.4948 18.0549 17.5077V16.2609C18.0549 15.4815 18.2685 15.2221 18.9093 15.6117Z" fill="white"/>
</g>
</g>
</g>
</svg>
