<svg width="27" height="27" viewBox="0 0 27 27" fill="none" xmlns="http://www.w3.org/2000/svg">
<g id="mobile-alt" clip-path="url(#clip0_1605_1105)">
<path id="Vector" d="M19.3167 0.25H7.18334C5.74792 0.25 4.58334 1.3418 4.58334 2.6875V23.8125C4.58334 25.1582 5.74792 26.25 7.18334 26.25H19.3167C20.7521 26.25 21.9167 25.1582 21.9167 23.8125V2.6875C21.9167 1.3418 20.7521 0.25 19.3167 0.25ZM13.25 24.625C12.2913 24.625 11.5167 23.8988 11.5167 23C11.5167 22.1012 12.2913 21.375 13.25 21.375C14.2088 21.375 14.9833 22.1012 14.9833 23C14.9833 23.8988 14.2088 24.625 13.25 24.625ZM19.3167 19.1406C19.3167 19.4758 19.0242 19.75 18.6667 19.75H7.83334C7.47584 19.75 7.18334 19.4758 7.18334 19.1406V3.29688C7.18334 2.96172 7.47584 2.6875 7.83334 2.6875H18.6667C19.0242 2.6875 19.3167 2.96172 19.3167 3.29688V19.1406Z" fill="white"/>
</g>
<defs>
<clipPath id="clip0_1605_1105">
<rect width="26" height="26" fill="white" transform="translate(0.25 0.25)"/>
</clipPath>
</defs>
</svg>
