<svg width="51" height="51" viewBox="0 0 51 51" fill="none" xmlns="http://www.w3.org/2000/svg">
<rect y="0.5" width="50.5" height="50.5" rx="3.75" fill="#0066FF"/>
<g clip-path="url(#clip0_1605_1149)">
<path d="M38.375 32.75H14.75V16.125C14.75 15.6416 14.3584 15.25 13.875 15.25H12.125C11.6416 15.25 11.25 15.6416 11.25 16.125V34.5C11.25 35.4663 12.0337 36.25 13 36.25H38.375C38.8584 36.25 39.25 35.8584 39.25 35.375V33.625C39.25 33.1416 38.8584 32.75 38.375 32.75ZM36.625 17H30.1686C28.9994 17 28.4137 18.4137 29.2405 19.2405L31.0124 21.0124L27 25.0254L22.9876 21.013C22.304 20.3294 21.196 20.3294 20.513 21.013L16.7565 24.7695C16.4147 25.1112 16.4147 25.6652 16.7565 26.007L17.9935 27.2441C18.3353 27.5859 18.8893 27.5859 19.2311 27.2441L21.75 24.7246L25.7624 28.737C26.446 29.4206 27.554 29.4206 28.237 28.737L33.487 23.487L35.2589 25.2589C36.0858 26.0858 37.4995 25.5001 37.4995 24.3309V17.875C37.5 17.3916 37.1084 17 36.625 17Z" fill="white"/>
</g>
<defs>
<clipPath id="clip0_1605_1149">
<rect width="28" height="28" fill="white" transform="translate(11.25 11.75)"/>
</clipPath>
</defs>
</svg>
