<svg width="50" height="50" viewBox="0 0 50 50" fill="none" xmlns="http://www.w3.org/2000/svg">
<rect width="50" height="50" rx="3.75" fill="#0066FF"/>
<g clip-path="url(#clip0_1605_1094)">
<path d="M31.1617 18.4086C29.4826 16.8364 27.3036 15.9745 24.9918 15.9766C20.8315 15.9802 17.2398 18.8328 16.2482 22.7898C16.176 23.0778 15.9194 23.2812 15.6224 23.2812H12.5446C12.1419 23.2812 11.8359 22.9156 11.9104 22.5198C13.0726 16.3485 18.4909 11.6797 25 11.6797C28.569 11.6797 31.8101 13.0835 34.2015 15.3688L36.1198 13.4505C36.9318 12.6385 38.3203 13.2136 38.3203 14.3621V21.5625C38.3203 22.2744 37.7432 22.8516 37.0312 22.8516H29.8308C28.6824 22.8516 28.1072 21.4631 28.9193 20.651L31.1617 18.4086ZM12.9688 27.1484H20.1692C21.3176 27.1484 21.8928 28.5369 21.0807 29.349L18.8383 31.5915C20.5174 33.1637 22.6966 34.0256 25.0084 34.0235C29.1666 34.0197 32.7597 31.1691 33.7518 27.2103C33.824 26.9223 34.0806 26.7189 34.3776 26.7189H37.4555C37.8582 26.7189 38.1641 27.0845 38.0896 27.4803C36.9274 33.6515 31.5091 38.3203 25 38.3203C21.431 38.3203 18.1899 36.9165 15.7985 34.6312L13.8802 36.5495C13.0682 37.3615 11.6797 36.7864 11.6797 35.6379V28.4375C11.6797 27.7256 12.2568 27.1484 12.9688 27.1484Z" fill="white"/>
</g>
<defs>
<clipPath id="clip0_1605_1094">
<rect width="27.5" height="27.5" fill="white" transform="translate(11.25 11.25)"/>
</clipPath>
</defs>
</svg>
