<svg width="51" height="51" viewBox="0 0 51 51" fill="none" xmlns="http://www.w3.org/2000/svg">
<rect width="50.5" height="50.5" rx="3.75" fill="#0066FF"/>
<path d="M25.2531 18.0712C21.2803 18.0712 18.0759 21.2763 18.0759 25.25C18.0759 29.2237 21.2803 32.4288 25.2531 32.4288C29.2259 32.4288 32.4304 29.2237 32.4304 25.25C32.4304 21.2763 29.2259 18.0712 25.2531 18.0712ZM25.2531 29.9172C22.6858 29.9172 20.587 27.8241 20.587 25.25C20.587 22.6759 22.6796 20.5828 25.2531 20.5828C27.8267 20.5828 29.9193 22.6759 29.9193 25.25C29.9193 27.8241 27.8204 29.9172 25.2531 29.9172ZM34.398 17.7775C34.398 18.7084 33.6484 19.4519 32.724 19.4519C31.7932 19.4519 31.0499 18.7022 31.0499 17.7775C31.0499 16.8528 31.7995 16.1031 32.724 16.1031C33.6484 16.1031 34.398 16.8528 34.398 17.7775ZM39.1516 19.4769C39.0454 17.2339 38.5332 15.2471 36.8904 13.6101C35.2538 11.9732 33.2674 11.4609 31.0249 11.3484C28.7137 11.2172 21.7863 11.2172 19.4751 11.3484C17.2388 11.4546 15.2525 11.9669 13.6096 13.6039C11.9668 15.2409 11.4608 17.2277 11.3484 19.4707C11.2172 21.7824 11.2172 28.7113 11.3484 31.0231C11.4546 33.2661 11.9668 35.2529 13.6096 36.8899C15.2525 38.5268 17.2326 39.0391 19.4751 39.1516C21.7863 39.2828 28.7137 39.2828 31.0249 39.1516C33.2674 39.0454 35.2538 38.5331 36.8904 36.8899C38.527 35.2529 39.0392 33.2661 39.1516 31.0231C39.2828 28.7113 39.2828 21.7887 39.1516 19.4769ZM36.1658 33.5035C35.6786 34.7281 34.7353 35.6715 33.5048 36.1651C31.662 36.8961 27.2895 36.7274 25.2531 36.7274C23.2168 36.7274 18.838 36.8899 17.0015 36.1651C15.7772 35.6778 14.8339 34.7343 14.3405 33.5035C13.6096 31.6604 13.7783 27.2868 13.7783 25.25C13.7783 23.2132 13.6159 18.8334 14.3405 16.9965C14.8277 15.7719 15.7709 14.8285 17.0015 14.3349C18.8442 13.6039 23.2168 13.7726 25.2531 13.7726C27.2895 13.7726 31.6683 13.6101 33.5048 14.3349C34.7291 14.8222 35.6723 15.7657 36.1658 16.9965C36.8966 18.8396 36.728 23.2132 36.728 25.25C36.728 27.2868 36.8966 31.6666 36.1658 33.5035Z" fill="white"/>
</svg>
