<svg width="51" height="51" viewBox="0 0 51 51" fill="none" xmlns="http://www.w3.org/2000/svg">
<rect y="0.5" width="50.5" height="50.5" rx="3.75" fill="#0066FF"/>
<g clip-path="url(#clip0_1605_1131)">
<path d="M25.25 11.75C17.5178 11.75 11.25 18.0178 11.25 25.75C11.25 33.4822 17.5178 39.75 25.25 39.75C32.9822 39.75 39.25 33.4822 39.25 25.75C39.25 18.0178 32.9822 11.75 25.25 11.75ZM29.8954 31.9371C29.6752 32.1561 29.4444 32.3859 29.2569 32.5739C29.0881 32.7432 28.969 32.9521 28.9086 33.1785C28.8234 33.498 28.7545 33.8209 28.6394 34.1308L27.6577 36.7756C26.8809 36.9449 26.077 37.0403 25.25 37.0403V35.4947C25.3454 34.7823 24.8187 33.4477 23.9725 32.6015C23.6338 32.2628 23.4435 31.8033 23.4435 31.324V29.517C23.4435 28.8599 23.0896 28.2559 22.5144 27.9381C21.7031 27.4893 20.5493 26.8621 19.759 26.4641C19.1109 26.1378 18.5114 25.7223 17.9723 25.2363L17.9271 25.1956C17.5416 24.8476 17.1993 24.4546 16.9076 24.0248C16.3781 23.2475 15.5155 21.9689 14.9549 21.1379C16.1105 18.5694 18.193 16.5066 20.7807 15.386L22.1361 16.064C22.7368 16.3644 23.4435 15.928 23.4435 15.2562V14.6183C23.8946 14.5455 24.3535 14.4992 24.8204 14.4817L26.418 16.0793C26.7708 16.4321 26.7708 17.004 26.418 17.3568L26.1532 17.621L25.5695 18.2047C25.3934 18.3808 25.3934 18.667 25.5695 18.8431L25.8343 19.1079C26.0104 19.284 26.0104 19.5702 25.8343 19.7464L25.3827 20.198C25.2979 20.2826 25.1829 20.3301 25.0631 20.3301H24.5556C24.4382 20.3301 24.3253 20.3758 24.2406 20.4582L23.6806 21.003C23.612 21.0698 23.5664 21.1568 23.5503 21.2512C23.5343 21.3457 23.5487 21.4428 23.5915 21.5285L24.4715 23.2893C24.6217 23.5896 24.4032 23.943 24.0679 23.943H23.7495C23.6406 23.943 23.5356 23.9035 23.4537 23.8323L22.9298 23.3773C22.8113 23.2745 22.668 23.2043 22.5141 23.1736C22.3602 23.1429 22.2009 23.1528 22.052 23.2023L20.2924 23.7889C20.1581 23.8337 20.0412 23.9196 19.9585 24.0345C19.8757 24.1494 19.8312 24.2874 19.8312 24.429C19.8312 24.6848 19.9757 24.9179 20.2044 25.0325L20.8298 25.3452C21.361 25.6111 21.947 25.7494 22.5409 25.7494C23.1348 25.7494 23.8161 27.29 24.3473 27.5559H28.1155C28.5948 27.5559 29.0537 27.7461 29.393 28.0848L30.1658 28.8577C30.4887 29.1806 30.67 29.6186 30.6699 30.0753C30.6698 30.4214 30.6013 30.764 30.4684 31.0835C30.3355 31.403 30.1408 31.6931 29.8954 31.9371ZM34.7903 26.7802C34.4635 26.6984 34.1784 26.498 33.9915 26.2174L32.9765 24.6949C32.828 24.4725 32.7488 24.211 32.7488 23.9435C32.7488 23.6761 32.828 23.4146 32.9765 23.1922L34.0824 21.5336C34.2134 21.3377 34.3929 21.1785 34.604 21.0735L35.3368 20.7072C36.1 22.2269 36.5403 23.9362 36.5403 25.75C36.5403 26.2394 36.4985 26.7187 36.4376 27.1918L34.7903 26.7802Z" fill="white"/>
</g>
<defs>
<clipPath id="clip0_1605_1131">
<rect width="28" height="28" fill="white" transform="translate(11.25 11.75)"/>
</clipPath>
</defs>
</svg>
