<svg width="49" height="49" viewBox="0 0 49 49" fill="none" xmlns="http://www.w3.org/2000/svg">
<rect width="48.5" height="48.5" rx="3.75" fill="#0066FF"/>
<g clip-path="url(#clip0_1605_1103)">
<path d="M30.3167 11.25H18.1833C16.7479 11.25 15.5833 12.3418 15.5833 13.6875V34.8125C15.5833 36.1582 16.7479 37.25 18.1833 37.25H30.3167C31.7521 37.25 32.9167 36.1582 32.9167 34.8125V13.6875C32.9167 12.3418 31.7521 11.25 30.3167 11.25ZM24.25 35.625C23.2913 35.625 22.5167 34.8988 22.5167 34C22.5167 33.1012 23.2913 32.375 24.25 32.375C25.2088 32.375 25.9833 33.1012 25.9833 34C25.9833 34.8988 25.2088 35.625 24.25 35.625ZM30.3167 30.1406C30.3167 30.4758 30.0242 30.75 29.6667 30.75H18.8333C18.4758 30.75 18.1833 30.4758 18.1833 30.1406V14.2969C18.1833 13.9617 18.4758 13.6875 18.8333 13.6875H29.6667C30.0242 13.6875 30.3167 13.9617 30.3167 14.2969V30.1406Z" fill="white"/>
</g>
<defs>
<clipPath id="clip0_1605_1103">
<rect width="26" height="26" fill="white" transform="translate(11.25 11.25)"/>
</clipPath>
</defs>
</svg>
