<svg width="24" height="24" viewBox="0 0 24 24" fill="none" xmlns="http://www.w3.org/2000/svg">
<g id="Gmail">
<path id="Vector" d="M18.73 5.40912L17.45 6.40912L12 10.4591L6.54995 6.36912L5.26995 5.36912C4.96841 5.11966 4.6003 4.96416 4.21124 4.92187C3.82218 4.87958 3.42926 4.95236 3.08116 5.1312C2.73306 5.31004 2.44508 5.58708 2.25289 5.92799C2.06071 6.26891 1.97276 6.65871 1.99995 7.04912V18.6391C1.99995 18.9998 2.14324 19.3457 2.39829 19.6008C2.65334 19.8558 2.99926 19.9991 3.35995 19.9991H6.54995V12.2791L12 16.3691L17.45 12.2791V19.9991H20.64C21.0006 19.9991 21.3466 19.8558 21.6016 19.6008C21.8567 19.3457 22 18.9998 22 18.6391V7.04912C22.0187 6.66208 21.9247 6.27792 21.7292 5.94334C21.5337 5.60876 21.2453 5.33817 20.8989 5.16445C20.5525 4.99073 20.1632 4.92138 19.7781 4.96481C19.3931 5.00825 19.0289 5.16261 18.73 5.40912Z" fill="#111111"/>
</g>
</svg>
