<svg width="129" height="46" viewBox="0 0 129 46" fill="none" xmlns="http://www.w3.org/2000/svg">
<g clip-path="url(#clip0_1606_1428)" filter="url(#filter0_d_1606_1428)">
<path d="M8.11814 6.08292V7.9335H12.0374V11.0059H8.11814V22.1399H4.56985V5.77823C4.56985 1.7571 6.96867 0.000281052 10.4803 0.000281052C11.2575 -0.0187935 12.033 0.0843682 12.7782 0.305993V3.31317C12.3077 3.24907 11.8336 3.21504 11.3587 3.21127C9.33488 3.21025 8.11814 3.88587 8.11814 6.08292ZM40.7274 13.8276C40.7274 16.1578 39.8018 18.3926 38.154 20.0403C36.5063 21.688 34.2715 22.6137 31.9413 22.6137C29.6111 22.6137 27.3763 21.688 25.7285 20.0403C24.0808 18.3926 23.1551 16.1578 23.1551 13.8276C23.1903 11.5205 24.1314 9.31989 25.7753 7.70083C27.4192 6.08178 29.634 5.17426 31.9413 5.17426C34.2486 5.17426 36.4634 6.08178 38.1073 7.70083C39.7512 9.31989 40.6923 11.5205 40.7274 13.8276ZM26.7666 13.8612C26.7306 14.5563 26.8371 15.2514 27.0794 15.9039C27.3217 16.5564 27.6947 17.1525 28.1756 17.6557C28.6565 18.1588 29.2352 18.5584 29.8761 18.8299C30.517 19.1014 31.2066 19.2391 31.9026 19.2346C32.985 19.2901 34.0591 19.0194 34.9859 18.4575C35.9127 17.8956 36.6495 17.0685 37.1009 16.0832C37.5523 15.0978 37.6976 13.9997 37.5178 12.9309C37.3381 11.8621 36.8417 10.8718 36.0928 10.0883C35.3439 9.30488 34.3771 8.76423 33.3175 8.53641C32.2579 8.30858 31.1543 8.40408 30.1496 8.81054C29.1449 9.21699 28.2853 9.91568 27.6822 10.8161C27.079 11.7166 26.7601 12.7774 26.7666 13.8612ZM53.1465 5.55098V8.6937H52.0602C49.4249 8.6937 47.1943 10.2141 47.1943 13.2895V22.1429H43.646V5.55098H46.9578V7.71338C47.5264 6.97558 48.2592 6.38063 49.0981 5.97586C49.937 5.5711 50.8588 5.36769 51.7901 5.38182C52.2479 5.37445 52.7045 5.43139 53.1465 5.55098ZM70.2459 15.0127H57.8728C58.0572 16.2878 58.7171 17.4458 59.72 18.2545C60.723 19.0631 61.9947 19.4624 63.2798 19.3722C65.0816 19.3596 66.8104 18.6585 68.1121 17.4126L69.8016 19.846C68.0271 21.5669 65.6498 22.5251 63.1779 22.5159C62.0295 22.5548 60.8848 22.3651 59.8104 21.9578C58.736 21.5504 57.7532 20.9335 56.9193 20.143C56.0854 19.3525 55.417 18.4041 54.9528 17.353C54.4887 16.3018 54.2381 15.1689 54.2157 14.0201C54.1933 12.8712 54.3995 11.7294 54.8222 10.661C55.245 9.59255 55.8759 8.61879 56.6784 7.79634C57.4808 6.97389 58.4387 6.31915 59.4964 5.87018C60.5541 5.42121 61.6905 5.18697 62.8396 5.18107C63.8504 5.14703 64.8575 5.31988 65.7991 5.68904C66.7407 6.05819 67.597 6.61585 68.3153 7.3278C69.0336 8.03976 69.5989 8.89098 69.9765 9.82925C70.3541 10.7675 70.5359 11.773 70.5109 12.7841C70.5011 13.5345 70.4106 14.2817 70.2409 15.0127H70.2459ZM57.9461 12.242H66.9687C66.9761 11.6901 66.8694 11.1426 66.6554 10.6338C66.4414 10.1251 66.1246 9.66603 65.7249 9.28538C65.3252 8.90473 64.8513 8.61072 64.3327 8.42176C63.8141 8.23279 63.262 8.15295 62.7112 8.18724C61.5634 8.18625 60.4528 8.59363 59.5779 9.33651C58.7031 10.0793 58.121 11.1092 57.936 12.242H57.9461ZM87.7174 11.7691V22.1429H84.1691V12.242C84.2127 11.7452 84.1509 11.2449 83.9879 10.7736C83.8248 10.3024 83.5642 9.87088 83.2229 9.5073C82.8816 9.14371 82.4675 8.85626 82.0075 8.66373C81.5475 8.4712 81.052 8.37793 80.5535 8.39003C80.0465 8.37408 79.5416 8.46333 79.0707 8.65215C78.5998 8.84098 78.1732 9.12529 77.8176 9.48717C77.462 9.84905 77.1853 10.2806 77.0048 10.7547C76.8243 11.2289 76.7439 11.7352 76.7688 12.242V22.1429H73.2205V5.55098H76.5324V7.20692C77.1723 6.53992 77.9451 6.01482 78.801 5.66566C79.6568 5.31649 80.5764 5.15105 81.5002 5.18005C85.4143 5.17903 87.7123 7.88254 87.7123 11.7681L87.7174 11.7691ZM106.248 9.03202L103.747 10.9916C103.28 10.2249 102.626 9.58987 101.845 9.14643C101.065 8.70299 100.184 8.46581 99.2865 8.45728C97.8885 8.50438 96.5635 9.09284 95.5912 10.0984C94.6189 11.104 94.0753 12.4481 94.0753 13.8469C94.0753 15.2458 94.6189 16.5898 95.5912 17.5955C96.5635 18.6011 97.8885 19.1895 99.2865 19.2366C100.18 19.2265 101.056 18.9922 101.836 18.5553C102.615 18.1184 103.272 17.4928 103.747 16.7359L106.248 18.6619C105.521 19.8598 104.492 20.8459 103.265 21.5218C102.037 22.1978 100.654 22.5398 99.2529 22.5139C98.1068 22.5263 96.9695 22.3113 95.9071 21.8813C94.8446 21.4513 93.8779 20.8148 93.0631 20.0087C92.2482 19.2027 91.6013 18.243 91.1598 17.1852C90.7183 16.1274 90.491 14.9926 90.491 13.8464C90.491 12.7002 90.7183 11.5654 91.1598 10.5077C91.6013 9.44994 92.2482 8.49025 93.0631 7.68417C93.8779 6.87809 94.8446 6.24163 95.9071 5.81162C96.9695 5.38162 98.1068 5.16661 99.2529 5.17903C100.654 5.14637 102.038 5.48565 103.265 6.1623C104.493 6.83896 105.519 7.82881 106.239 9.031L106.248 9.03202ZM124.305 15.0137H111.932C112.116 16.2888 112.776 17.4469 113.779 18.2555C114.782 19.0641 116.054 19.4634 117.339 19.3732C119.141 19.3605 120.869 18.6594 122.171 17.4136L123.861 19.847C122.086 21.5679 119.709 22.5262 117.237 22.5169C116.089 22.5559 114.944 22.3661 113.87 21.9588C112.795 21.5514 111.812 20.9346 110.978 20.144C110.145 19.3535 109.476 18.4051 109.012 17.354C108.548 16.3029 108.297 15.1699 108.275 14.0211C108.252 12.8723 108.459 11.7304 108.881 10.662C109.304 9.59357 109.935 8.61981 110.737 7.79736C111.54 6.97491 112.498 6.32016 113.556 5.87119C114.613 5.42222 115.75 5.18798 116.899 5.18209C117.909 5.14805 118.917 5.3209 119.858 5.69006C120.8 6.05921 121.656 6.61687 122.374 7.32882C123.093 8.04078 123.658 8.892 124.036 9.83027C124.413 10.7685 124.595 11.774 124.57 12.7851C124.56 13.5352 124.47 14.282 124.3 15.0127L124.305 15.0137ZM112.005 12.243H121.028C121.035 11.6911 120.929 11.1436 120.715 10.6348C120.5 10.1261 120.184 9.66705 119.784 9.2864C119.384 8.90575 118.91 8.61174 118.392 8.42278C117.873 8.23381 117.321 8.15397 116.77 8.18826C115.623 8.18819 114.514 8.59587 113.64 9.33846C112.766 10.081 112.184 11.1101 111.999 12.242L112.005 12.243ZM19.7424 0.371211H16.1941V22.1419H19.7424V0.371211Z" fill="#9CA0AC"/>
<path d="M52.2212 32.9664C52.2443 33.2932 52.2002 33.6212 52.0915 33.9302C51.9827 34.2392 51.8117 34.5226 51.5891 34.7628C51.3664 35.003 51.0968 35.195 50.7969 35.3269C50.4971 35.4587 50.1734 35.5276 49.8458 35.5293C49.5439 35.5425 49.2433 35.483 48.9693 35.3556C48.6953 35.2283 48.4559 35.0369 48.2714 34.7976V35.4091H47.0485V27.9854H48.3845V30.9844C48.5733 30.7886 48.8016 30.6353 49.0543 30.5346C49.307 30.4339 49.5782 30.3882 49.8499 30.4005C50.1774 30.4027 50.5009 30.4721 50.8005 30.6044C51.1001 30.7367 51.3694 30.929 51.5916 31.1695C51.8139 31.41 51.9845 31.6936 52.0928 32.0027C52.201 32.3118 52.2448 32.6398 52.2212 32.9664ZM50.8648 32.9562C50.8768 32.7831 50.8528 32.6093 50.7944 32.4459C50.736 32.2825 50.6445 32.1328 50.5256 32.0064C50.4066 31.88 50.2629 31.7796 50.1033 31.7114C49.9437 31.6432 49.7717 31.6087 49.5982 31.6101C49.2601 31.6395 48.9452 31.7946 48.7159 32.0447C48.4865 32.2949 48.3593 32.6219 48.3593 32.9613C48.3593 33.3007 48.4865 33.6278 48.7159 33.8779C48.9452 34.1281 49.2601 34.2832 49.5982 34.3126C49.7725 34.3136 49.9452 34.2785 50.1053 34.2096C50.2654 34.1406 50.4095 34.0392 50.5285 33.9118C50.6475 33.7843 50.7388 33.6337 50.7967 33.4692C50.8546 33.3048 50.8778 33.1301 50.8648 32.9562Z" fill="#9CA0AC"/>
<path d="M57.8157 30.5103L55.4719 35.8358C55.3523 36.2606 55.0971 36.6346 54.7451 36.9008C54.3932 37.1671 53.9637 37.3109 53.5224 37.3104C53.2316 37.3061 52.9425 37.266 52.6614 37.1912V36.0702C52.8886 36.0896 53.0772 36.11 53.2351 36.11C53.4549 36.1308 53.6753 36.0765 53.8604 35.956C54.0454 35.8356 54.1842 35.656 54.2542 35.4466L54.4029 35.1194L52.5228 30.5063H53.9383L55.1356 33.7234L56.4135 30.5063L57.8157 30.5103Z" fill="#9CA0AC"/>
<path d="M68.7235 32.372V35.4108H67.3865V32.5575C67.4001 32.4361 67.3875 32.3132 67.3496 32.1972C67.3117 32.0811 67.2494 31.9744 67.1669 31.8845C67.0843 31.7945 66.9834 31.7232 66.871 31.6755C66.7586 31.6277 66.6373 31.6046 66.5152 31.6077C66.3943 31.603 66.2736 31.6236 66.1611 31.6682C66.0486 31.7128 65.9466 31.7805 65.8618 31.8669C65.777 31.9532 65.7111 32.0564 65.6685 32.1697C65.6259 32.283 65.6075 32.404 65.6144 32.5249V35.4047H64.2774V32.5514C64.2912 32.43 64.2787 32.307 64.2409 32.1909C64.2031 32.0747 64.1408 31.968 64.0582 31.878C63.9756 31.788 63.8746 31.7167 63.7622 31.669C63.6497 31.6213 63.5283 31.5984 63.4061 31.6016C63.2824 31.5969 63.159 31.6186 63.0443 31.6654C62.9295 31.7121 62.8261 31.7828 62.7408 31.8727C62.6556 31.9625 62.5905 32.0696 62.5499 32.1866C62.5093 32.3036 62.4941 32.428 62.5053 32.5514V35.4047H61.1694V30.5051H62.3922V30.9413C62.574 30.7613 62.7905 30.6202 63.0286 30.5266C63.2667 30.4331 63.5214 30.389 63.7771 30.3971C64.0597 30.3798 64.3421 30.4353 64.597 30.5584C64.852 30.6816 65.0711 30.8681 65.2333 31.1002C65.4386 30.8728 65.6905 30.6923 65.9719 30.5709C66.2532 30.4496 66.5574 30.3903 66.8637 30.3971C67.1214 30.384 67.3789 30.4271 67.6183 30.5233C67.8577 30.6196 68.0733 30.7667 68.2502 30.9546C68.4271 31.1424 68.561 31.3665 68.6428 31.6112C68.7245 31.856 68.752 32.1156 68.7235 32.372Z" fill="#9CA0AC"/>
<path d="M71.425 28.7292C71.43 28.9 71.384 29.0683 71.2927 29.2127C71.2014 29.3571 71.069 29.4709 70.9125 29.5395C70.7561 29.6081 70.5827 29.6284 70.4147 29.5978C70.2466 29.5672 70.0915 29.487 69.9693 29.3676C69.8472 29.2482 69.7635 29.095 69.729 28.9277C69.6945 28.7604 69.7108 28.5866 69.7758 28.4286C69.8408 28.2706 69.9515 28.1357 70.0937 28.0411C70.236 27.9465 70.4032 27.8965 70.5741 27.8977C70.6849 27.8952 70.795 27.9149 70.8981 27.9556C71.0011 27.9963 71.0951 28.0571 71.1743 28.1346C71.2536 28.212 71.3165 28.3045 71.3596 28.4066C71.4026 28.5087 71.4249 28.6184 71.425 28.7292ZM71.2375 35.41H69.9015V30.5105H71.2375V35.41Z" fill="#9CA0AC"/>
<path d="M73.8014 35.4105H72.4654V27.9868H73.8014V35.4105Z" fill="#9CA0AC"/>
<path d="M76.3673 35.4105H75.0314V27.9868H76.3673V35.4105Z" fill="#9CA0AC"/>
<path d="M81.0182 31.1351L80.3446 31.9565C80.0512 31.667 79.6582 31.5008 79.2461 31.4918C78.9292 31.4918 78.7223 31.6008 78.7223 31.8383C78.7223 32.037 78.8803 32.1358 79.2318 32.2734L79.7067 32.4721C80.5882 32.8288 81.0834 33.2038 81.0834 33.9671C81.0834 34.9769 80.2417 35.5313 79.1727 35.5313C78.784 35.5417 78.3981 35.4613 78.0459 35.2964C77.6937 35.1315 77.3848 34.8868 77.1438 34.5815L77.8174 33.7663C77.9891 33.9651 78.1998 34.1266 78.4364 34.2407C78.6731 34.3548 78.9306 34.4191 79.1931 34.4297C79.5304 34.4297 79.8168 34.3013 79.8168 34.0221C79.8168 33.7938 79.6129 33.7052 79.3072 33.5768L78.7824 33.3587C77.9509 33.0224 77.4465 32.6362 77.4465 31.8638C77.4465 30.9242 78.2077 30.3892 79.2471 30.3892C79.5788 30.3772 79.9092 30.4377 80.2151 30.5665C80.521 30.6954 80.795 30.8894 81.0182 31.1351Z" fill="#9CA0AC"/>
<path d="M82.3695 30.0739H81.9731V31.0737H81.7336V30.0739H81.3372V29.8538H82.3684L82.3695 30.0739ZM83.7492 31.0737H83.5077V30.401L83.1959 30.8086H83.1154L82.8097 30.401V31.0746H82.5651V29.8354H82.6456L83.1623 30.5009L83.6718 29.8354H83.7503L83.7492 31.0737Z" fill="#9CA0AC"/>
</g>
<defs>
<filter id="filter0_d_1606_1428" x="0.569855" y="0" width="128" height="46" filterUnits="userSpaceOnUse" color-interpolation-filters="sRGB">
<feFlood flood-opacity="0" result="BackgroundImageFix"/>
<feColorMatrix in="SourceAlpha" type="matrix" values="0 0 0 0 0 0 0 0 0 0 0 0 0 0 0 0 0 0 127 0" result="hardAlpha"/>
<feOffset dy="4"/>
<feGaussianBlur stdDeviation="2"/>
<feComposite in2="hardAlpha" operator="out"/>
<feColorMatrix type="matrix" values="0 0 0 0 0 0 0 0 0 0 0 0 0 0 0 0 0 0 0.25 0"/>
<feBlend mode="normal" in2="BackgroundImageFix" result="effect1_dropShadow_1606_1428"/>
<feBlend mode="normal" in="SourceGraphic" in2="effect1_dropShadow_1606_1428" result="shape"/>
</filter>
<clipPath id="clip0_1606_1428">
<rect width="120" height="38" fill="white" transform="translate(4.56985)"/>
</clipPath>
</defs>
</svg>
