<svg width="40" height="41" viewBox="0 0 40 41" fill="none" xmlns="http://www.w3.org/2000/svg">
<g id="Group 335">
<rect id="Rectangle 28" y="0.463013" width="40" height="40" rx="6.66667" fill="white"/>
<g id="Group 31">
<path id="Vector" d="M19.6589 11.9669V13.0837C19.6589 14.0447 19.479 14.2005 18.8585 14.5384L13.077 17.4734V17.6033L18.8322 20.4866C19.479 20.8241 19.6589 20.9542 19.6589 21.9413V23.1879C19.6589 23.9671 19.4002 24.2269 18.7291 23.8634L10.0307 19.0837C9.51516 18.7982 9.33331 18.5903 9.33331 17.9931V17.1618C9.33331 16.5643 9.51516 16.3305 10.0307 16.045L18.7291 11.2913C19.4002 10.9278 19.6589 11.1875 19.6589 11.9669Z" fill="#111827"/>
<path id="Vector_2" d="M20.5775 16.0744L29.2497 20.8279C29.7915 21.1136 29.9733 21.3213 29.9733 21.9187V22.75C29.9733 23.3733 29.7915 23.5811 29.2497 23.8668L20.5775 28.6202C19.8802 28.984 19.6477 28.7243 19.6477 27.9449V26.8281C19.6477 25.867 19.8277 25.7111 20.4482 25.3995L26.2296 22.4642V22.3084L20.4744 19.4251C19.8277 19.1135 19.6477 18.9575 19.6477 17.9704V16.7237C19.6477 15.9443 19.8802 15.6848 20.5775 16.0744Z" fill="#111827"/>
</g>
</g>
</svg>
