<svg width="16" height="17" viewBox="0 0 16 17" fill="none" xmlns="http://www.w3.org/2000/svg">
<path d="M15.7836 1.1479C15.7635 1.05438 15.7169 0.968657 15.6493 0.901024C15.5816 0.833391 15.4959 0.78673 15.4024 0.76665C14.3961 0.551025 13.6089 0.551025 12.8246 0.551025C9.59957 0.551025 7.66519 2.27603 6.22176 4.55103H2.96551C2.68741 4.55126 2.41486 4.6288 2.17829 4.77498C1.94172 4.92116 1.75044 5.13023 1.62582 5.37884L0.0814434 8.46634C0.0244098 8.58071 -0.00244954 8.70776 0.00341448 8.83544C0.00927849 8.96311 0.0476713 9.08716 0.114949 9.19583C0.182227 9.30449 0.276158 9.39417 0.387827 9.45633C0.499497 9.51849 0.6252 9.55109 0.753006 9.55103H3.99582L3.29363 10.2532C3.10614 10.4407 3.00081 10.6951 3.00081 10.9602C3.00081 11.2254 3.10614 11.4797 3.29363 11.6673L4.88426 13.2582C4.97712 13.3511 5.08737 13.4248 5.20871 13.475C5.33005 13.5253 5.4601 13.5512 5.59144 13.5512C5.72278 13.5512 5.85284 13.5253 5.97418 13.475C6.09552 13.4248 6.20577 13.3511 6.29863 13.2582L7.00082 12.556V15.801C7.00078 15.9288 7.03338 16.0544 7.09553 16.1661C7.15768 16.2777 7.24731 16.3716 7.35593 16.4389C7.46455 16.5061 7.58856 16.5445 7.71618 16.5505C7.84381 16.5564 7.97083 16.5295 8.08519 16.4726L11.1696 14.9292C11.4186 14.8048 11.628 14.6134 11.7743 14.3766C11.9206 14.1398 11.9979 13.8669 11.9977 13.5885V10.3257C14.2661 8.87884 15.9977 6.93821 15.9977 3.72915C16.0008 2.94165 16.0008 2.15415 15.7836 1.1479ZM12.0008 5.80103C11.7536 5.80103 11.5119 5.72771 11.3064 5.59036C11.1008 5.45301 10.9406 5.25779 10.846 5.02938C10.7514 4.80097 10.7266 4.54964 10.7748 4.30716C10.8231 4.06469 10.9421 3.84196 11.1169 3.66714C11.2917 3.49233 11.5145 3.37328 11.757 3.32504C11.9994 3.27681 12.2508 3.30157 12.4792 3.39618C12.7076 3.49079 12.9028 3.651 13.0402 3.85656C13.1775 4.06212 13.2508 4.3038 13.2508 4.55103C13.2508 4.88255 13.1191 5.20049 12.8847 5.43491C12.6503 5.66933 12.3323 5.80103 12.0008 5.80103Z" fill="#682EE6"/>
</svg>
