<svg width="16" height="17" viewBox="0 0 16 17" fill="none" xmlns="http://www.w3.org/2000/svg">
<path d="M12.4271 5.55078V4.55078C12.4271 2.34516 10.5473 0.550781 8.23665 0.550781C5.926 0.550781 4.04618 2.34516 4.04618 4.55078V5.55078H0.90332V14.0508C0.90332 15.4315 2.0759 16.5508 3.52237 16.5508H12.9509C14.3974 16.5508 15.57 15.4315 15.57 14.0508V5.55078H12.4271ZM6.14142 4.55078C6.14142 3.44797 7.08133 2.55078 8.23665 2.55078C9.39198 2.55078 10.3319 3.44797 10.3319 4.55078V5.55078H6.14142V4.55078ZM11.3795 8.30078C10.9456 8.30078 10.5938 7.965 10.5938 7.55078C10.5938 7.13656 10.9456 6.80078 11.3795 6.80078C11.8135 6.80078 12.1652 7.13656 12.1652 7.55078C12.1652 7.965 11.8135 8.30078 11.3795 8.30078ZM5.0938 8.30078C4.65985 8.30078 4.30808 7.965 4.30808 7.55078C4.30808 7.13656 4.65985 6.80078 5.0938 6.80078C5.52774 6.80078 5.87951 7.13656 5.87951 7.55078C5.87951 7.965 5.52774 8.30078 5.0938 8.30078Z" fill="#682EE6"/>
</svg>
