<svg width="17" height="13" viewBox="0 0 17 13" fill="none" xmlns="http://www.w3.org/2000/svg">
<path d="M15.6336 10.5452H2.13361V1.04517C2.13361 0.768916 1.90986 0.545166 1.63361 0.545166H0.633606C0.357356 0.545166 0.133606 0.768916 0.133606 1.04517V11.5452C0.133606 12.0974 0.581418 12.5452 1.13361 12.5452H15.6336C15.9099 12.5452 16.1336 12.3214 16.1336 12.0452V11.0452C16.1336 10.7689 15.9099 10.5452 15.6336 10.5452ZM14.6336 1.54517H10.9442C10.2761 1.54517 9.94142 2.35298 10.4139 2.82548L11.4264 3.83798L9.13361 6.1311L6.84079 3.83829C6.45017 3.44767 5.81704 3.44767 5.42673 3.83829L3.28017 5.98485C3.08486 6.18017 3.08486 6.49673 3.28017 6.69204L3.98704 7.39892C4.18236 7.59423 4.49892 7.59423 4.69423 7.39892L6.13361 5.95923L8.42642 8.25204C8.81704 8.64267 9.45017 8.64267 9.84048 8.25204L12.8405 5.25204L13.853 6.26454C14.3255 6.73704 15.1333 6.40235 15.1333 5.73423V2.04517C15.1336 1.76892 14.9099 1.54517 14.6336 1.54517Z" fill="#682EE6"/>
</svg>
