<?xml version="1.0" standalone="no"?>
<!DOCTYPE svg PUBLIC "-//W3C//DTD SVG 20010904//EN"
 "http://www.w3.org/TR/2001/REC-SVG-20010904/DTD/svg10.dtd">
<svg version="1.0" xmlns="http://www.w3.org/2000/svg"
 width="25.000000pt" height="25.000000pt" viewBox="0 0 25.000000 25.000000"
 preserveAspectRatio="xMidYMid meet">
<metadata>
Created by potrace 1.16, written by Peter Selinger 2001-2019
</metadata>
<g transform="translate(0.000000,25.000000) scale(0.004883,-0.004883)"
fill="#000000" stroke="none">
<path d="M2380 4959 c-435 -54 -809 -340 -970 -742 -256 -640 67 -1360 712
-1586 666 -232 1381 144 1563 823 148 549 -111 1128 -620 1384 -204 103 -464
149 -685 121z"/>
<path d="M1494 2552 c-458 -302 -757 -778 -829 -1321 -11 -77 -15 -223 -15
-536 0 -412 1 -431 20 -463 11 -18 34 -41 52 -52 33 -20 54 -20 1804 -20
l1771 0 34 23 c69 46 69 45 69 502 0 420 -6 517 -41 688 -95 471 -395 911
-803 1179 -48 32 -91 58 -95 58 -4 0 -34 -19 -66 -43 -241 -174 -507 -268
-805 -284 -321 -17 -680 92 -935 283 -33 24 -63 44 -66 44 -4 0 -47 -26 -95
-58z"/>
</g>
</svg>
