<?xml version="1.0" encoding="UTF-8" standalone="no"?>
<svg
   version="1.0"
   width="260.000000pt"
   height="260.000000pt"
   viewBox="0 0 260.000000 260.000000"
   preserveAspectRatio="xMidYMid meet"
   id="svg8"
   sodipodi:docname="ce49c0e90ce458efd2acca2663f03e2c.svg"
   xmlns:inkscape="http://www.inkscape.org/namespaces/inkscape"
   xmlns:sodipodi="http://sodipodi.sourceforge.net/DTD/sodipodi-0.dtd"
   xmlns="http://www.w3.org/2000/svg"
   xmlns:svg="http://www.w3.org/2000/svg">
  <defs
     id="defs12" />
  <sodipodi:namedview
     id="namedview10"
     pagecolor="#ffffff"
     bordercolor="#666666"
     borderopacity="1.0"
     inkscape:pageshadow="2"
     inkscape:pageopacity="0.0"
     inkscape:pagecheckerboard="0"
     inkscape:document-units="pt" />
  <metadata
     id="metadata2">
Created by potrace 1.16, written by Peter Selinger 2001-2019
</metadata>
  <g
     transform="translate(0.000000,260.000000) scale(0.100000,-0.100000)"
     fill="#000000"
     stroke="none"
     id="g6">
    <path
       d="M1155 2594 c-95 -15 -200 -40 -275 -66 -438 -155 -756 -519 -856 -978 -26 -119 -26 -381 0 -500 113 -520 506 -913 1026 -1026 119 -26 381 -26 500 0 469 102 839 433 985 880 50 154 60 223 60 401 -1 117 -6 183 -19 245 -111 513 -495 903 -1006 1021 -83 19 -344 34 -415 23z m370 -121 c407 -71 757 -367 899 -761 91 -255 91 -569 0 -824 -54 -149 -138 -286 -249 -406 l-56 -61 -59 35 c-32 20 -112 57 -177 83 -181 73 -233 101 -278 146 -48 47 -55 72 -55 191 0 80 2 86 36 134 33 47 83 166 84 200 0 8 10 20 22 25 56 25 87 162 51 220 -19 29 -19 31 0 105 10 41 21 126 24 188 8 157 -11 226 -81 298 -36 37 -64 56 -96 65 -25 7 -56 22 -70 35 -65 57 -170 80 -298 64 -182 -23 -299 -102 -354 -239 -20 -50 -23 -73 -22 -206 0 -103 5 -170 16 -214 15 -61 15 -65 -4 -98 -37 -61 -7 -193 49 -218 15 -6 24 -22 28 -46 8 -45 57 -152 91 -196 22 -29 24 -41 24 -136 0 -91 -3 -108 -22 -137 -37 -55 -110 -99 -281 -170 -89 -36 -184 -81 -212 -98 l-50 -32 -62 64 c-334 348 -414 918 -190 1361 107 213 309 415 522 522 127 65 310 114 465 127 71 5 207 -4 305 -21z"
       id="path4" />
  </g>
</svg>
